# Blender v2.79 (sub 0) OBJ File: 'toon-pine-tree.blend'
# www.blender.org
mtllib pine-tree.mtl
o Tree1_Cylinder
v 0.000000 1.317068 -1.754061
v -0.000000 7.992999 -0.042618
v 1.141872 1.448185 -1.141872
v 0.033652 7.992999 -0.030136
v 1.754061 1.317068 0.000000
v 0.047591 7.992999 0.000000
v 1.141872 1.448185 1.141872
v 0.033652 7.992999 0.030135
v -0.000000 1.317068 1.754061
v -0.000000 7.992999 0.042618
v -1.141872 1.448185 1.141872
v -0.033652 7.992999 0.030135
v -1.754061 1.317068 -0.000000
v -0.047591 7.992999 -0.000000
v -1.141872 1.448185 -1.141872
v -0.033652 7.992999 -0.030136
v 0.000000 2.407870 -1.483439
v 0.000000 3.498673 -1.212816
v 0.000000 4.589475 -0.942193
v 0.000000 5.680277 -0.671571
v -0.000000 6.771080 -0.400948
v 0.269262 6.902196 -0.261012
v 0.443784 5.811394 -0.437184
v 0.618306 4.720592 -0.613356
v 0.792828 3.629790 -0.789528
v 0.967350 2.538987 -0.965700
v 0.413620 6.771080 0.000000
v 0.681709 5.680277 0.000000
v 0.949797 4.589475 0.000000
v 1.217885 3.498673 0.000000
v 1.485973 2.407870 0.000000
v 0.269262 6.902196 0.261012
v 0.443784 5.811394 0.437184
v 0.618306 4.720592 0.613356
v 0.792828 3.629790 0.789528
v 0.967350 2.538987 0.965700
v -0.000000 6.771080 0.400948
v -0.000000 5.680277 0.671571
v -0.000000 4.589475 0.942193
v -0.000000 3.498673 1.212816
v -0.000000 2.407870 1.483439
v -0.269262 6.902196 0.261012
v -0.443784 5.811394 0.437184
v -0.618306 4.720592 0.613356
v -0.792828 3.629790 0.789528
v -0.967350 2.538987 0.965700
v -0.413620 6.771080 -0.000000
v -0.681709 5.680277 -0.000000
v -0.949797 4.589475 -0.000000
v -1.217885 3.498673 -0.000000
v -1.485973 2.407870 -0.000000
v -0.269262 6.902196 -0.261012
v -0.443784 5.811394 -0.437184
v -0.618306 4.720592 -0.613356
v -0.792828 3.629790 -0.789528
v -0.967350 2.538987 -0.965700
v 0.000000 6.689939 -0.656068
v 0.440590 6.821055 -0.427092
v 0.676803 6.689939 0.000000
v 0.440590 6.821055 0.427092
v -0.000000 6.689939 0.656068
v -0.440590 6.821055 0.427092
v -0.676803 6.689939 -0.000000
v -0.440590 6.821055 -0.427092
v 0.000000 5.599136 -0.905614
v 0.598443 5.730253 -0.589543
v 0.919284 5.599136 0.000000
v 0.598443 5.730253 0.589543
v -0.000000 5.599136 0.905614
v -0.598443 5.730253 0.589543
v -0.919285 5.599136 -0.000000
v -0.598443 5.730253 -0.589543
v 0.000000 4.508334 -1.212718
v 0.795835 4.639451 -0.789464
v 1.222505 4.508334 0.000000
v 0.795835 4.639451 0.789464
v -0.000000 4.508334 1.212718
v -0.795835 4.639451 0.789464
v -1.222505 4.508334 -0.000000
v -0.795835 4.639451 -0.789464
v 0.000000 3.417531 -1.470701
v 0.961410 3.548648 -0.957408
v 1.476848 3.417531 0.000000
v 0.961410 3.548648 0.957408
v -0.000000 3.417531 1.470702
v -0.961410 3.548648 0.957408
v -1.476848 3.417531 -0.000000
v -0.961410 3.548648 -0.957408
v 0.000000 2.326729 -1.914958
v 1.248743 2.457846 -1.246614
v 1.918230 2.326729 0.000000
v 1.248743 2.457846 1.246614
v -0.000000 2.326729 1.914958
v -1.248744 2.457846 1.246614
v -1.918230 2.326729 -0.000000
v -1.248744 2.457846 -1.246614
v 1.490596 1.367043 -1.490596
v 2.289747 1.235926 0.000000
v 1.490596 1.367043 1.490596
v -0.000000 1.235926 2.289747
v -1.490596 1.367043 1.490596
v -2.289747 1.235926 -0.000000
v -1.490596 1.367043 -1.490596
v 0.000000 1.235926 -2.289747
v -0.000000 1.705831 -0.408672
v -0.000000 0.006774 -0.408672
v 0.288975 1.705831 -0.288975
v 0.288975 0.006774 -0.288975
v 0.408672 1.705831 0.000000
v 0.408672 0.006774 0.000000
v 0.288975 1.705831 0.288975
v 0.288975 0.006774 0.288975
v -0.000000 1.705831 0.408672
v -0.000000 0.006774 0.408672
v -0.288975 1.705831 0.288975
v -0.288975 0.006774 0.288975
v -0.408672 1.705831 -0.000000
v -0.408672 0.006774 -0.000000
v -0.288975 1.705831 -0.288975
v -0.288975 0.006774 -0.288975
v -0.000000 0.649100 -0.311412
v 0.220201 0.649100 -0.220201
v 0.311412 0.649100 0.000000
v 0.220201 0.649100 0.220201
v -0.000000 0.649100 0.311412
v -0.220201 0.649100 0.220201
v -0.311412 0.649100 -0.000000
v -0.220201 0.649100 -0.220201
vt 0.923502 0.023195
vt 0.994772 0.130856
vt 0.992903 0.132435
vt 0.906370 0.054734
vt 0.947335 0.242564
vt 0.985356 0.132435
vt 0.988300 0.132976
vt 0.988300 0.262489
vt 0.457650 0.810118
vt 0.457650 0.939310
vt 0.455361 0.939631
vt 0.426976 0.826596
vt 0.452421 0.940974
vt 0.381152 0.833313
vt 0.450553 0.942553
vt 0.364020 0.864852
vt 0.906370 0.242565
vt 0.944391 0.132435
vt 0.947335 0.132976
vt 0.947335 0.262489
vt 0.322482 0.516259
vt 0.322482 0.519486
vt 0.320371 0.521933
vt 0.317385 0.522166
vt 0.315274 0.520048
vt 0.315274 0.516821
vt 0.317385 0.514374
vt 0.320371 0.514141
vt 0.969326 0.016477
vt 0.997711 0.129513
vt 1.000000 0.000000
vt 1.000000 0.129192
vt 0.107258 0.320478
vt 0.042581 0.223444
vt 0.042581 0.106938
vt 0.139906 0.042454
vt 0.256762 0.042454
vt 0.321439 0.139488
vt 0.321439 0.255994
vt 0.224114 0.320478
vt 0.604311 0.303929
vt 0.720032 0.358894
vt 0.720032 0.436737
vt 0.598294 0.424607
vt 0.715183 0.805425
vt 0.600998 0.760146
vt 0.598294 0.696664
vt 0.717307 0.704576
vt 0.952248 0.752567
vt 0.841337 0.722359
vt 0.836321 0.673279
vt 0.950590 0.675329
vt 0.716232 0.950428
vt 0.605030 0.919281
vt 0.598294 0.884579
vt 0.712931 0.886864
vt 0.790443 0.294174
vt 0.818604 0.184049
vt 0.838983 0.175628
vt 0.837857 0.288932
vt 0.716411 0.535864
vt 0.598807 0.576939
vt 0.602408 0.615321
vt 0.717307 0.576939
vt 0.841415 0.609702
vt 0.952248 0.576939
vt 0.605130 0.838799
vt 0.716232 0.805425
vt 0.867057 0.184189
vt 0.899299 0.294174
vt 0.674803 0.000000
vt 0.790443 0.054787
vt 0.790443 0.132224
vt 0.668704 0.120048
vt 0.836921 0.531981
vt 0.722799 0.486849
vt 0.720032 0.423694
vt 0.839046 0.431651
vt 0.952253 0.928013
vt 0.841420 0.897872
vt 0.836321 0.849035
vt 0.950589 0.851166
vt 0.311488 0.926209
vt 0.200384 0.894883
vt 0.193537 0.860334
vt 0.308169 0.862950
vt 0.485759 0.656367
vt 0.514472 0.546373
vt 0.534802 0.537795
vt 0.532976 0.651093
vt 0.786816 0.231420
vt 0.669129 0.272323
vt 0.724083 0.342173
vt 0.839046 0.303929
vt 0.841342 0.785178
vt 0.952253 0.752567
vt 0.200284 0.814177
vt 0.311488 0.781158
vt 0.563337 0.546234
vt 0.594918 0.656367
vt 0.199553 0.362931
vt 0.315274 0.417897
vt 0.315274 0.495739
vt 0.193537 0.483609
vt 0.116888 0.784839
vt 0.002704 0.739560
vt 0.000000 0.676078
vt 0.119012 0.683990
vt 0.906370 0.175628
vt 0.795460 0.145421
vt 0.790443 0.096341
vt 0.904712 0.098390
vt 0.835245 0.949994
vt 0.724043 0.918847
vt 0.717307 0.884144
vt 0.831944 0.886429
vt 0.485759 0.893486
vt 0.513920 0.783360
vt 0.534299 0.774939
vt 0.533173 0.888243
vt 0.311653 0.594866
vt 0.194050 0.635941
vt 0.004114 0.594735
vt 0.119012 0.556352
vt 0.795538 0.032764
vt 0.906370 0.000000
vt 0.724143 0.838365
vt 0.835245 0.804991
vt 0.562373 0.783500
vt 0.594615 0.893486
vt 0.364020 0.657843
vt 0.485759 0.670019
vt 0.482132 0.769216
vt 0.364445 0.810118
vt 0.836321 0.704660
vt 0.717307 0.696703
vt 0.721358 0.615183
vt 0.836321 0.576939
vt 0.953314 0.402529
vt 0.839046 0.400397
vt 0.844067 0.336540
vt 0.954979 0.303929
vt 0.114632 0.866631
vt 0.000000 0.864014
vt 0.006747 0.817857
vt 0.117951 0.784839
vt 0.532976 0.769664
vt 0.534802 0.656367
vt 0.563337 0.664806
vt 0.594918 0.774939
vt 0.370119 0.537795
vt 0.485759 0.592582
vt 0.834195 0.804991
vt 0.720073 0.759859
vt 0.954979 0.479375
vt 0.844145 0.449234
vt 0.117951 0.929890
vt 0.006847 0.898563
vt 0.485759 0.774939
vt 0.514472 0.664945
vt 0.507055 0.929293
vt 0.486919 0.918190
vt 0.524224 0.893486
vt 0.529853 0.914195
vt 0.568243 0.893486
vt 0.556755 0.914195
vt 0.591641 0.930660
vt 0.571054 0.936914
vt 0.590480 0.975295
vt 0.570345 0.964192
vt 0.553176 1.000000
vt 0.547547 0.979290
vt 0.509156 1.000000
vt 0.520645 0.979290
vt 0.506346 0.956571
vt 0.485759 0.962825
vt 0.319244 0.737417
vt 0.337785 0.747477
vt 0.286945 0.781158
vt 0.281542 0.762394
vt 0.226408 0.781158
vt 0.236651 0.762394
vt 0.193537 0.730476
vt 0.212274 0.724809
vt 0.194298 0.669622
vt 0.212839 0.679682
vt 0.245138 0.635941
vt 0.250541 0.654706
vt 0.305675 0.635941
vt 0.295432 0.654706
vt 0.319809 0.692290
vt 0.338546 0.686624
vt 0.171527 0.419359
vt 0.192992 0.407793
vt 0.193537 0.488846
vt 0.171950 0.482331
vt 0.149193 0.556352
vt 0.137498 0.534779
vt 0.068255 0.556352
vt 0.074616 0.534779
vt 0.000544 0.511491
vt 0.022009 0.499925
vt 0.000000 0.430438
vt 0.021586 0.436952
vt 0.044344 0.362931
vt 0.056038 0.384505
vt 0.118921 0.384505
vt 0.125281 0.362931
vt 0.577473 0.472560
vt 0.597953 0.483553
vt 0.516085 0.537795
vt 0.509961 0.517291
vt 0.418015 0.537795
vt 0.429087 0.517291
vt 0.364020 0.456173
vt 0.384560 0.449981
vt 0.364362 0.358171
vt 0.384842 0.369164
vt 0.446229 0.303929
vt 0.452354 0.324433
vt 0.544299 0.303929
vt 0.533227 0.324433
vt 0.577755 0.391743
vt 0.598294 0.385551
vt 0.398490 0.088851
vt 0.364202 0.070492
vt 0.470595 0.000000
vt 0.480908 0.034244
vt 0.598218 0.000000
vt 0.579773 0.034244
vt 0.668704 0.106075
vt 0.634375 0.116416
vt 0.668522 0.233437
vt 0.634234 0.215078
vt 0.562129 0.303929
vt 0.551816 0.269685
vt 0.434506 0.303929
vt 0.452951 0.269685
vt 0.398349 0.187513
vt 0.364020 0.197854
vt 0.084429 0.362931
vt 0.000000 0.236264
vt 0.000000 0.084177
vt 0.127048 0.000000
vt 0.279591 0.000000
vt 0.364020 0.126668
vt 0.364020 0.278755
vt 0.236973 0.362931
vt 0.323316 0.416690
vt 0.315274 0.362931
vt 0.335585 0.369046
vt 0.338793 0.421349
vt 0.363791 0.368884
vt 0.360286 0.421226
vt 0.351803 0.878640
vt 0.359869 0.932428
vt 0.339697 0.926279
vt 0.336432 0.873955
vt 0.311488 0.926379
vt 0.314936 0.874031
vt 0.127054 0.610111
vt 0.119012 0.556352
vt 0.139323 0.562467
vt 0.142531 0.614770
vt 0.167529 0.562305
vt 0.164024 0.614647
vt 0.167171 0.858832
vt 0.187119 0.878720
vt 0.187119 0.906846
vt 0.167171 0.926735
vt 0.138961 0.926735
vt 0.119012 0.906846
vt 0.119012 0.878720
vt 0.138961 0.858832
vt 0.143956 0.800359
vt 0.147221 0.852683
vt 0.119012 0.852782
vt 0.122461 0.800434
vt 0.159328 0.805044
vt 0.167394 0.858832
vt 0.907153 0.499264
vt 0.907153 0.527390
vt 0.887205 0.547278
vt 0.858994 0.547278
vt 0.839046 0.527390
vt 0.839046 0.499264
vt 0.858994 0.479375
vt 0.887205 0.479375
vt 0.315274 0.508027
vt 0.335585 0.514141
vt 0.363791 0.513979
vt 0.359869 0.787307
vt 0.339697 0.781158
vt 0.311488 0.781258
vt 0.119012 0.701447
vt 0.139323 0.707562
vt 0.167529 0.707400
vt 0.147221 0.707562
vt 0.119012 0.707661
vt 0.167394 0.713711
vn 0.3244 0.4028 -0.8559
vn 0.8448 0.4090 -0.3449
vn 0.8448 0.4090 0.3449
vn 0.3244 0.4028 0.8559
vn -0.3244 0.4028 0.8559
vn -0.8448 0.4090 0.3449
vn 0.0000 1.0000 0.0000
vn -0.3244 0.4028 -0.8559
vn -0.8448 0.4090 -0.3449
vn 0.0000 -1.0000 0.0000
vn 0.3595 0.5202 -0.7747
vn 0.3690 0.4687 -0.8026
vn 0.3882 0.3709 -0.8437
vn 0.3699 0.3789 -0.8483
vn 0.3477 0.3570 -0.8670
vn 0.7749 0.5194 -0.3603
vn 0.8021 0.4680 -0.3709
vn 0.8421 0.3702 -0.3922
vn 0.8453 0.3787 -0.3770
vn 0.8614 0.3574 -0.3609
vn 0.7749 0.5194 0.3603
vn 0.8021 0.4680 0.3709
vn 0.8421 0.3702 0.3922
vn 0.8453 0.3787 0.3770
vn 0.8614 0.3574 0.3609
vn 0.3595 0.5202 0.7747
vn 0.3690 0.4687 0.8026
vn 0.3882 0.3709 0.8437
vn 0.3699 0.3789 0.8483
vn 0.3477 0.3570 0.8670
vn -0.3595 0.5202 0.7747
vn -0.3690 0.4687 0.8026
vn -0.3882 0.3709 0.8437
vn -0.3699 0.3789 0.8483
vn -0.3477 0.3570 0.8670
vn -0.7749 0.5194 0.3603
vn -0.8021 0.4680 0.3709
vn -0.8421 0.3702 0.3922
vn -0.8453 0.3787 0.3770
vn -0.8614 0.3574 0.3609
vn -0.3595 0.5202 -0.7747
vn -0.3690 0.4687 -0.8026
vn -0.3882 0.3709 -0.8437
vn -0.3699 0.3789 -0.8483
vn -0.3477 0.3570 -0.8670
vn -0.7749 0.5194 -0.3603
vn -0.8021 0.4680 -0.3709
vn -0.8421 0.3702 -0.3922
vn -0.8453 0.3787 -0.3770
vn -0.8614 0.3574 -0.3609
vn 0.1267 -0.9072 0.4011
vn -0.3905 -0.9112 -0.1313
vn -0.3905 -0.9112 0.1313
vn 0.1267 -0.9072 -0.4011
vn -0.1267 -0.9072 -0.4011
vn 0.3905 -0.9112 0.1313
vn -0.1267 -0.9072 0.4011
vn 0.3905 -0.9112 -0.1313
vn 0.0226 -0.9185 0.3948
vn -0.3898 -0.9206 -0.0230
vn -0.3898 -0.9206 0.0230
vn 0.0226 -0.9185 -0.3948
vn -0.0226 -0.9185 -0.3948
vn 0.3898 -0.9206 0.0230
vn -0.0226 -0.9185 0.3948
vn 0.3898 -0.9206 -0.0230
vn -0.0061 -0.9406 0.3394
vn -0.3370 -0.9415 0.0061
vn -0.3370 -0.9415 -0.0061
vn -0.0061 -0.9406 -0.3394
vn 0.0061 -0.9406 -0.3394
vn 0.3370 -0.9415 -0.0061
vn 0.0061 -0.9406 0.3394
vn 0.3370 -0.9415 0.0061
vn -0.0419 -0.9390 0.3413
vn -0.3401 -0.9395 0.0421
vn -0.3401 -0.9395 -0.0421
vn -0.0419 -0.9390 -0.3413
vn 0.0419 -0.9390 -0.3413
vn 0.3401 -0.9395 -0.0421
vn 0.0419 -0.9390 0.3413
vn 0.3401 -0.9395 0.0421
vn -0.0029 -0.9753 0.2210
vn -0.2207 -0.9753 0.0029
vn -0.2207 -0.9753 -0.0029
vn -0.0029 -0.9753 -0.2210
vn 0.0029 -0.9753 -0.2210
vn 0.2207 -0.9753 -0.0029
vn 0.0029 -0.9753 0.2210
vn 0.2207 -0.9753 0.0029
vn 0.0010 -0.9835 0.1809
vn -0.1809 -0.9835 -0.0010
vn -0.1809 -0.9835 0.0010
vn 0.0010 -0.9835 -0.1809
vn -0.0010 -0.9835 -0.1809
vn 0.1809 -0.9835 0.0010
vn -0.0010 -0.9835 0.1809
vn 0.1809 -0.9835 -0.0010
vn -0.3790 -0.1385 0.9150
vn -0.9150 -0.1385 0.3790
vn -0.9150 -0.1385 -0.3790
vn -0.3790 -0.1385 -0.9150
vn 0.3790 -0.1385 -0.9150
vn 0.9150 -0.1385 -0.3790
vn 0.3790 -0.1385 0.9150
vn 0.9150 -0.1385 0.3790
vn -0.3813 0.0847 0.9206
vn -0.9206 0.0847 0.3813
vn -0.9206 0.0847 -0.3813
vn -0.3813 0.0847 -0.9206
vn 0.3813 0.0847 -0.9206
vn 0.9206 0.0847 -0.3813
vn 0.3813 0.0847 0.9206
vn 0.9206 0.0847 0.3813
usemtl Material
s off
f 57/1/1 2/2/1 4/3/1 58/4/1
f 58/5/2 4/6/2 6/7/2 59/8/2
f 59/9/3 6/10/3 8/11/3 60/12/3
f 60/12/4 8/11/4 10/13/4 61/14/4
f 61/14/5 10/13/5 12/15/5 62/16/5
f 62/17/6 12/18/6 14/19/6 63/20/6
f 4/21/7 2/22/7 16/23/7 14/24/7 12/25/7 10/26/7 8/27/7 6/28/7
f 64/29/8 16/30/8 2/2/8 57/1/8
f 63/31/9 14/32/9 16/30/9 64/29/9
f 1/33/10 3/34/10 5/35/10 7/36/10 9/37/10 11/38/10 13/39/10 15/40/10
f 104/41/11 17/42/11 26/43/11 97/44/11
f 89/45/12 18/46/12 25/47/12 90/48/12
f 81/49/13 19/50/13 24/51/13 82/52/13
f 73/53/14 20/54/14 23/55/14 74/56/14
f 65/57/15 21/58/15 22/59/15 66/60/15
f 97/44/16 26/43/16 31/61/16 98/62/16
f 90/48/17 25/47/17 30/63/17 91/64/17
f 82/52/18 24/51/18 29/65/18 83/66/18
f 74/56/19 23/55/19 28/67/19 75/68/19
f 66/60/20 22/59/20 27/69/20 67/70/20
f 98/71/21 31/72/21 36/73/21 99/74/21
f 91/75/22 30/76/22 35/77/22 92/78/22
f 83/79/23 29/80/23 34/81/23 84/82/23
f 75/83/24 28/84/24 33/85/24 76/86/24
f 67/87/25 27/88/25 32/89/25 68/90/25
f 99/74/26 36/73/26 41/91/26 100/92/26
f 92/78/27 35/77/27 40/93/27 93/94/27
f 84/82/28 34/81/28 39/95/28 85/96/28
f 76/86/29 33/85/29 38/97/29 77/98/29
f 68/90/30 32/89/30 37/99/30 69/100/30
f 100/101/31 41/102/31 46/103/31 101/104/31
f 93/105/32 40/106/32 45/107/32 94/108/32
f 85/109/33 39/110/33 44/111/33 86/112/33
f 77/113/34 38/114/34 43/115/34 78/116/34
f 69/117/35 37/118/35 42/119/35 70/120/35
f 101/104/36 46/103/36 51/121/36 102/122/36
f 94/108/37 45/107/37 50/123/37 95/124/37
f 86/112/38 44/111/38 49/125/38 87/126/38
f 78/116/39 43/115/39 48/127/39 79/128/39
f 70/120/40 42/119/40 47/129/40 71/130/40
f 103/131/41 56/132/41 17/133/41 104/134/41
f 96/135/42 55/136/42 18/137/42 89/138/42
f 88/139/43 54/140/43 19/141/43 81/142/43
f 80/143/44 53/144/44 20/145/44 73/146/44
f 72/147/45 52/148/45 21/149/45 65/150/45
f 102/151/46 51/152/46 56/132/46 103/131/46
f 95/153/47 50/154/47 55/136/47 96/135/47
f 87/155/48 49/156/48 54/140/48 88/139/48
f 79/157/49 48/158/49 53/144/49 80/143/49
f 71/159/50 47/160/50 52/148/50 72/147/50
f 21/161/51 57/162/51 58/163/51 22/164/51
f 22/164/52 58/163/52 59/165/52 27/166/52
f 27/166/53 59/165/53 60/167/53 32/168/53
f 32/168/54 60/167/54 61/169/54 37/170/54
f 37/170/55 61/169/55 62/171/55 42/172/55
f 42/172/56 62/171/56 63/173/56 47/174/56
f 52/175/57 64/176/57 57/162/57 21/161/57
f 47/174/58 63/173/58 64/176/58 52/175/58
f 20/177/59 65/178/59 66/179/59 23/180/59
f 23/180/60 66/179/60 67/181/60 28/182/60
f 28/182/61 67/181/61 68/183/61 33/184/61
f 33/184/62 68/183/62 69/185/62 38/186/62
f 38/186/63 69/185/63 70/187/63 43/188/63
f 43/188/64 70/187/64 71/189/64 48/190/64
f 53/191/65 72/192/65 65/178/65 20/177/65
f 48/190/66 71/189/66 72/192/66 53/191/66
f 19/193/67 73/194/67 74/195/67 24/196/67
f 24/196/68 74/195/68 75/197/68 29/198/68
f 29/198/69 75/197/69 76/199/69 34/200/69
f 34/200/70 76/199/70 77/201/70 39/202/70
f 39/202/71 77/201/71 78/203/71 44/204/71
f 44/204/72 78/203/72 79/205/72 49/206/72
f 54/207/73 80/208/73 73/194/73 19/193/73
f 49/206/74 79/205/74 80/208/74 54/207/74
f 18/209/75 81/210/75 82/211/75 25/212/75
f 25/212/76 82/211/76 83/213/76 30/214/76
f 30/214/77 83/213/77 84/215/77 35/216/77
f 35/216/78 84/215/78 85/217/78 40/218/78
f 40/218/79 85/217/79 86/219/79 45/220/79
f 45/220/80 86/219/80 87/221/80 50/222/80
f 55/223/81 88/224/81 81/210/81 18/209/81
f 50/222/82 87/221/82 88/224/82 55/223/82
f 17/225/83 89/226/83 90/227/83 26/228/83
f 26/228/84 90/227/84 91/229/84 31/230/84
f 31/230/85 91/229/85 92/231/85 36/232/85
f 36/232/86 92/231/86 93/233/86 41/234/86
f 41/234/87 93/233/87 94/235/87 46/236/87
f 46/236/88 94/235/88 95/237/88 51/238/88
f 56/239/89 96/240/89 89/226/89 17/225/89
f 51/238/90 95/237/90 96/240/90 56/239/90
f 1/33/91 104/241/91 97/242/91 3/34/91
f 3/34/92 97/242/92 98/243/92 5/35/92
f 5/35/93 98/243/93 99/244/93 7/36/93
f 7/36/94 99/244/94 100/245/94 9/37/94
f 9/37/95 100/245/95 101/246/95 11/38/95
f 11/38/96 101/246/96 102/247/96 13/39/96
f 15/40/97 103/248/97 104/241/97 1/33/97
f 13/39/98 102/247/98 103/248/98 15/40/98
f 121/249/99 106/250/99 108/251/99 122/252/99
f 122/252/100 108/251/100 110/253/100 123/254/100
f 123/255/101 110/256/101 112/257/101 124/258/101
f 124/258/102 112/257/102 114/259/102 125/260/102
f 125/261/103 114/262/103 116/263/103 126/264/103
f 126/264/104 116/263/104 118/265/104 127/266/104
f 108/267/7 106/268/7 120/269/7 118/270/7 116/271/7 114/272/7 112/273/7 110/274/7
f 128/275/105 120/276/105 106/277/105 121/278/105
f 127/279/106 118/280/106 120/276/106 128/275/106
f 105/281/10 107/282/10 109/283/10 111/284/10 113/285/10 115/286/10 117/287/10 119/288/10
f 105/289/107 121/249/107 122/252/107 107/290/107
f 107/290/108 122/252/108 123/254/108 109/291/108
f 109/292/109 123/255/109 124/258/109 111/293/109
f 111/293/110 124/258/110 125/260/110 113/294/110
f 113/295/111 125/261/111 126/264/111 115/296/111
f 115/296/112 126/264/112 127/266/112 117/297/112
f 119/298/113 128/275/113 121/278/113 105/299/113
f 117/300/114 127/279/114 128/275/114 119/298/114
